<svg  width="600" height="600" xmlns="http://www.w3.org/2000/svg" ><path  d="
 M 222 8 C 233 15, 233, 36, 245, 45
 C 252 53, 257, 60, 264, 64
 C 272 62, 280, 63, 287, 63
 C 286 53, 285, 46, 286, 36
 C 289 31, 286, 24, 291, 23
 C 299 37, 302, 52, 311, 62
 C 314 62, 315, 62, 316, 62
 C 311 59, 312, 51, 307, 46
 C 309 35, 321, 39, 324, 37
 C 351 44, 379, 47, 402, 58
 C 417 65, 431, 73, 445, 77
 C 449 80, 445, 81, 448, 83
 C 465 93, 479, 105, 491, 115
 C 504 126, 512, 143, 524, 153
 C 540 178, 552, 202, 560, 227
 C 564 244, 568, 259, 572, 274
 C 574 301, 574, 328, 572, 352
 C 568 366, 567, 378, 564, 389
 C 558 411, 551, 427, 541, 444
 C 534 458, 528, 466, 522, 477
 C 509 493, 496, 507, 481, 520
 C 468 533, 455, 540, 442, 550
 C 424 560, 407, 568, 390, 574
 C 360 579, 332, 584, 305, 589
 C 291 590, 281, 588, 271, 588
 C 249 587, 233, 579, 215, 577
 C 201 570, 185, 565, 173, 557
 C 150 546, 133, 535, 117, 519
 C 103 507, 93, 494, 81, 480
 C 66 461, 57, 443, 48, 423
 C 42 410, 38, 398, 35, 387
 C 28 357, 22, 326, 25, 296
 C 28 267, 34, 242, 42, 217
 C 49 202, 54, 188, 61, 176
 C 73 158, 85, 139, 99, 126
 C 112 112, 128, 99, 139, 88
 C 162 75, 188, 59, 214, 53
 C 228 53, 222, 71, 235, 72
 C 227 60, 222, 49, 221, 36
 C 219 27, 220, 19, 222, 13" fill="rgb(126,90,79)" />
<path  d="
 M 223 12 C 221 24, 220, 33, 224, 46
 C 228 56, 232, 64, 238, 70
 C 234 72, 231, 72, 230, 74
 C 227 69, 223, 63, 222, 58
 C 219 55, 216, 54, 212, 55
 C 191 60, 175, 71, 160, 78
 C 137 91, 119, 107, 102, 125
 C 86 141, 73, 160, 63, 176
 C 54 192, 47, 208, 40, 227
 C 35 246, 30, 263, 29, 281
 C 27 297, 25, 310, 26, 325
 C 28 347, 31, 365, 35, 385
 C 41 409, 53, 431, 63, 451
 C 77 475, 87, 486, 105, 507
 C 121 522, 137, 536, 157, 547
 C 176 559, 195, 567, 212, 574
 C 233 579, 249, 585, 269, 586
 C 287 590, 307, 589, 321, 585
 C 338 582, 350, 580, 362, 578
 C 387 567, 409, 554, 430, 539
 C 447 525, 461, 510, 471, 493
 C 479 478, 485, 465, 486, 450
 C 487 431, 484, 415, 478, 401
 C 473 394, 469, 388, 463, 383
 C 455 375, 447, 371, 438, 368
 C 428 363, 418, 363, 408, 364
 C 397 365, 389, 368, 381, 372
 C 352 385, 334, 414, 312, 428
 C 305 425, 291, 424, 291, 418
 C 276 429, 259, 439, 242, 443
 C 231 446, 219, 445, 214, 445
 C 209 443, 213, 442, 214, 443
 C 212 441, 210, 444, 208, 440
 C 216 434, 232, 430, 243, 424
 C 254 419, 262, 413, 269, 405
 C 290 384, 294, 354, 307, 333
 C 314 322, 322, 315, 329, 307
 C 346 295, 357, 290, 374, 284
 C 391 280, 408, 277, 426, 279
 C 447 280, 465, 287, 482, 295
 C 479 301, 464, 292, 454, 295
 C 455 295, 457, 294, 458, 295
 C 452 297, 450, 295, 447, 295
 C 451 295, 447, 298, 448, 299
 C 460 302, 475, 308, 486, 317
 C 501 328, 510, 340, 516, 352
 C 521 363, 525, 372, 526, 382
 C 520 373, 511, 360, 501, 357
 C 506 368, 511, 379, 513, 392
 C 515 414, 513, 433, 507, 449
 C 514 440, 528, 413, 535, 392
 C 540 372, 545, 354, 546, 335
 C 547 307, 547, 281, 540, 259
 C 535 237, 528, 218, 520, 200
 C 510 182, 500, 166, 487, 151
 C 475 137, 461, 124, 447, 115
 C 429 101, 411, 91, 391, 84
 C 370 74, 348, 70, 326, 67
 C 317 61, 315, 52, 311, 46
 C 327 41, 344, 45, 360, 49
 C 385 55, 406, 63, 426, 74
 C 441 82, 453, 90, 465, 98
 C 479 109, 490, 121, 501, 133
 C 518 152, 531, 170, 540, 190
 C 553 214, 561, 238, 566, 262
 C 570 287, 572, 313, 569, 338
 C 568 364, 561, 385, 554, 406
 C 544 435, 530, 459, 513, 482
 C 496 503, 476, 521, 456, 535
 C 442 546, 429, 553, 416, 560
 C 399 568, 384, 572, 368, 577
 C 375 576, 381, 575, 388, 573
 C 404 567, 418, 562, 431, 554
 C 447 544, 462, 535, 474, 524
 C 489 513, 499, 501, 511, 489
 C 522 473, 532, 460, 540, 445
 C 545 432, 553, 420, 556, 407
 C 565 390, 566, 369, 570, 353
 C 573 327, 573, 300, 571, 277
 C 567 259, 564, 246, 561, 231
 C 554 215, 549, 200, 542, 187
 C 530 163, 519, 152, 504, 131
 C 488 111, 467, 98, 442, 79
 C 429 70, 417, 68, 405, 60
 C 379 49, 350, 44, 322, 40
 C 316 38, 311, 40, 309, 44
 C 310 52, 315, 59, 320, 63
 C 317 64, 315, 64, 312, 65
 C 302 52, 297, 38, 294, 26
 C 287 26, 290, 32, 288, 36
 C 287 42, 287, 47, 287, 53
 C 289 56, 288, 59, 289, 61
 C 281 63, 272, 64, 267, 66
 C 256 60, 246, 53, 242, 44
 C 233 34, 231, 21, 226, 13
 C 226 21, 230, 28, 233, 36
 C 239 46, 246, 52, 253, 59
 C 268 74, 290, 85, 306, 91
 C 299 80, 292, 68, 289, 55
 C 289 43, 287, 32, 291, 24
 C 293 35, 297, 42, 299, 50
 C 306 62, 314, 72, 323, 80
 C 339 94, 354, 107, 365, 114
 C 360 109, 358, 101, 357, 94
 C 357 87, 355, 81, 358, 77
 C 363 88, 369, 98, 377, 106
 C 391 124, 412, 131, 421, 145
 C 426 153, 420, 162, 429, 166
 C 438 172, 447, 177, 457, 180
 C 466 181, 459, 174, 463, 173
 C 470 177, 473, 182, 476, 185
 C 479 193, 478, 198, 476, 204
 C 472 213, 466, 217, 459, 222
 C 457 219, 460, 212, 454, 210
 C 451 207, 441, 205, 436, 208
 C 429 200, 424, 195, 418, 191
 C 405 183, 382, 186, 368, 179
 C 365 176, 361, 175, 360, 172
 C 361 176, 364, 181, 369, 183
 C 377 187, 393, 190, 401, 197
 C 412 205, 419, 214, 427, 221
 C 435 226, 442, 224, 447, 221
 C 448 228, 446, 232, 443, 236
 C 438 241, 435, 245, 430, 245
 C 421 245, 413, 247, 407, 244
 C 405 240, 410, 242, 411, 238
 C 413 233, 413, 231, 410, 229
 C 403 219, 396, 214, 388, 212
 C 366 202, 340, 211, 321, 200
 C 317 198, 315, 198, 315, 196
 C 325 195, 334, 193, 341, 188
 C 331 185, 322, 185, 314, 182
 C 302 179, 293, 174, 285, 168
 C 282 164, 278, 162, 277, 160
 C 293 163, 310, 166, 324, 161
 C 311 154, 297, 149, 285, 141
 C 273 130, 266, 120, 261, 108
 C 287 112, 308, 129, 331, 138
 C 304 112, 270, 106, 246, 78
 C 236 68, 230, 58, 226, 47
 C 221 35, 223, 24, 223, 13" fill="rgb(111,76,75)" />
<path  d="
 M 214 56 C 223 54, 222, 70, 228, 74
 C 212 81, 199, 86, 186, 94
 C 170 101, 158, 110, 145, 119
 C 130 132, 119, 143, 108, 157
 C 98 168, 91, 180, 85, 191
 C 77 205, 71, 217, 67, 231
 C 61 247, 57, 261, 55, 276
 C 52 301, 51, 328, 55, 350
 C 59 378, 67, 401, 78, 423
 C 82 431, 75, 413, 77, 409
 C 86 430, 94, 450, 106, 468
 C 117 483, 129, 496, 142, 508
 C 160 523, 178, 535, 197, 544
 C 223 555, 247, 562, 274, 564
 C 299 565, 319, 562, 338, 555
 C 320 561, 297, 559, 279, 555
 C 257 550, 240, 541, 223, 530
 C 211 526, 199, 527, 189, 522
 C 178 519, 170, 514, 163, 507
 C 150 497, 142, 484, 135, 472
 C 153 481, 173, 490, 193, 496
 C 192 490, 188, 483, 184, 477
 C 189 476, 194, 476, 197, 478
 C 211 493, 222, 509, 237, 519
 C 252 532, 267, 539, 283, 543
 C 305 551, 328, 552, 350, 549
 C 362 545, 371, 539, 379, 532
 C 367 538, 352, 542, 337, 543
 C 317 545, 301, 543, 286, 537
 C 268 532, 254, 524, 241, 514
 C 229 504, 218, 493, 211, 484
 C 225 493, 240, 501, 256, 508
 C 269 514, 281, 518, 294, 520
 C 308 521, 313, 521, 330, 520
 C 345 517, 360, 514, 369, 509
 C 375 507, 378, 502, 381, 503
 C 375 500, 362, 501, 354, 498
 C 371 492, 385, 488, 400, 478
 C 409 471, 418, 464, 424, 455
 C 429 448, 432, 442, 435, 436
 C 438 422, 439, 405, 433, 395
 C 428 383, 418, 376, 408, 374
 C 414 372, 420, 371, 425, 373
 C 434 376, 440, 377, 446, 382
 C 452 388, 457, 393, 460, 399
 C 466 408, 468, 416, 470, 424
 C 471 438, 471, 449, 467, 459
 C 463 475, 457, 488, 449, 500
 C 443 507, 436, 511, 431, 517
 C 428 507, 433, 499, 435, 494
 C 428 502, 424, 512, 417, 521
 C 406 534, 396, 546, 383, 554
 C 368 565, 354, 572, 340, 578
 C 328 581, 318, 583, 308, 585
 C 293 587, 281, 585, 269, 584
 C 248 582, 230, 577, 213, 571
 C 182 560, 156, 546, 131, 527
 C 114 513, 100, 498, 88, 483
 C 80 473, 74, 464, 69, 455
 C 58 438, 50, 422, 45, 405
 C 38 389, 35, 375, 32, 360
 C 27 328, 27, 294, 33, 265
 C 36 249, 39, 236, 44, 224
 C 50 205, 59, 189, 67, 173
 C 83 147, 104, 124, 127, 105
 C 142 92, 156, 83, 171, 75
 C 185 67, 198, 61, 212, 57" fill="rgb(159,117,79)" />
<path  d="
 M 213 104 C 239 97, 259, 103, 262, 130
 C 270 138, 277, 145, 285, 150
 C 265 150, 243, 153, 225, 161
 C 206 169, 190, 177, 177, 192
 C 160 206, 152, 221, 144, 237
 C 137 257, 134, 278, 137, 298
 C 140 317, 146, 333, 155, 347
 C 165 360, 176, 370, 188, 375
 C 198 381, 207, 384, 218, 383
 C 228 384, 238, 383, 245, 379
 C 255 376, 261, 372, 268, 367
 C 275 359, 282, 351, 287, 343
 C 287 356, 283, 368, 278, 379
 C 270 394, 256, 407, 244, 415
 C 229 423, 214, 426, 198, 425
 C 187 425, 180, 421, 173, 418
 C 160 413, 150, 407, 141, 398
 C 134 389, 127, 382, 122, 374
 C 114 359, 106, 350, 106, 338
 C 105 349, 107, 356, 107, 367
 C 112 387, 120, 405, 134, 419
 C 149 437, 165, 448, 183, 455
 C 194 457, 202, 461, 211, 461
 C 227 461, 240, 462, 252, 459
 C 277 454, 298, 443, 314, 427
 C 304 441, 291, 451, 279, 457
 C 264 465, 251, 469, 237, 471
 C 217 473, 201, 470, 187, 465
 C 173 460, 162, 454, 152, 446
 C 155 460, 168, 471, 176, 481
 C 163 475, 153, 472, 145, 462
 C 135 454, 128, 447, 123, 439
 C 115 428, 109, 418, 104, 407
 C 100 393, 95, 383, 95, 371
 C 91 384, 89, 398, 93, 411
 C 88 410, 87, 406, 85, 403
 C 77 383, 74, 363, 76, 341
 C 77 320, 85, 303, 92, 286
 C 86 287, 82, 291, 78, 296
 C 71 304, 67, 312, 64, 320
 C 60 316, 62, 310, 63, 305
 C 66 286, 71, 271, 79, 256
 C 90 237, 105, 224, 119, 210
 C 102 208, 91, 219, 79, 227
 C 89 208, 104, 191, 120, 180
 C 140 167, 146, 166, 162, 160
 C 164 153, 157, 154, 154, 153
 C 143 154, 133, 154, 125, 157
 C 124 154, 127, 154, 128, 151
 C 143 141, 161, 135, 173, 132
 C 201 129, 208, 124, 226, 128
 C 226 123, 222, 121, 219, 119
 C 207 111, 191, 114, 181, 111
 C 194 107, 203, 104, 212, 103" fill="rgb(188,147,81)" />
<path  d="
 M 287 211
 L 288 210 C 308 208, 326, 211, 342, 217
 C 356 223, 368, 227, 379, 236
 C 445 279, 365, 267, 343, 288
 C 330 294, 321, 304, 312, 312
 C 303 321, 298, 331, 292, 339
 C 291 337, 292, 331, 294, 328
 C 291 331, 283, 334, 289, 337
 C 276 340, 271, 356, 259, 361
 C 251 367, 244, 371, 237, 373
 C 224 374, 211, 376, 202, 370
 C 191 360, 184, 351, 180, 341
 C 177 330, 175, 322, 176, 312
 C 179 296, 184, 282, 192, 269
 C 199 258, 207, 250, 215, 243
 C 229 231, 241, 223, 255, 217
 C 266 214, 275, 212, 284, 210" fill="rgb(154,110,115)" />
<path  d="
 M 223 67 C 209 72, 193, 77, 180, 84
 C 163 93, 150, 102, 137, 112
 C 122 126, 108, 140, 97, 154
 C 87 166, 79, 177, 74, 189
 C 58 216, 49, 244, 44, 274
 C 40 296, 42, 317, 41, 337
 C 42 353, 46, 365, 48, 378
 C 44 383, 46, 393, 42, 395
 L 42 392
 L 42 395 C 49 407, 51, 422, 63, 442
 C 70 456, 78, 467, 86, 479
 C 96 491, 105, 501, 114, 511
 C 129 524, 143, 533, 157, 542
 C 184 559, 212, 571, 241, 578
 C 257 581, 271, 583, 285, 584
 C 300 585, 312, 582, 323, 580
 C 346 575, 364, 566, 382, 554
 C 401 539, 414, 523, 424, 506
 C 436 486, 443, 467, 446, 446
 C 447 433, 448, 424, 446, 415
 C 445 405, 441, 398, 437, 392
 C 434 393, 433, 388, 432, 388
 C 437 393, 437, 398, 439, 407
 C 442 429, 431, 447, 433, 465
 C 430 476, 424, 484, 417, 492
 C 405 505, 393, 513, 380, 519
 C 369 525, 359, 530, 348, 532
 C 332 534, 315, 534, 302, 532
 C 287 530, 275, 524, 264, 519
 C 247 512, 234, 502, 220, 493
 C 231 504, 242, 513, 254, 520
 C 268 530, 282, 536, 297, 539
 C 313 543, 335, 542, 350, 539
 C 364 536, 374, 534, 384, 528
 C 377 537, 368, 542, 359, 547
 C 347 555, 329, 559, 320, 562
 C 307 563, 293, 568, 278, 566
 C 252 565, 231, 559, 210, 550
 C 184 541, 162, 527, 141, 510
 C 128 497, 116, 485, 108, 472
 C 97 457, 91, 443, 83, 429
 C 82 431, 84, 431, 84, 434
 C 68 410, 59, 382, 54, 356
 C 50 329, 49, 297, 55, 269
 C 57 253, 62, 240, 66, 227
 C 74 205, 86, 182, 101, 162
 C 113 148, 124, 136, 137, 125
 C 151 113, 163, 104, 177, 97
 C 193 88, 208, 80, 224, 76
 C 225 72, 223, 70, 222, 68" fill="rgb(179,130,65)" />
<path  d="
 M 317 55 C 320 58, 322, 63, 326, 65
 C 341 66, 353, 70, 365, 73
 C 385 78, 401, 85, 417, 93
 C 440 106, 459, 120, 477, 139
 C 499 161, 513, 183, 524, 207
 C 536 233, 544, 259, 547, 287
 C 549 306, 549, 323, 547, 339
 C 546 357, 542, 371, 538, 385
 C 530 411, 520, 434, 505, 455
 C 510 435, 509, 431, 512, 415
 C 513 409, 512, 404, 512, 400
 C 513 405, 512, 408, 512, 412
 C 511 409, 509, 403, 509, 398
 C 509 405, 500, 402, 504, 414
 C 501 407, 500, 400, 499, 394
 C 501 400, 500, 408, 500, 416
 C 496 404, 494, 393, 487, 383
 C 478 371, 468, 362, 456, 357
 C 447 352, 440, 349, 432, 349
 C 421 348, 413, 350, 406, 352
 C 388 358, 372, 368, 360, 381
 C 371 375, 382, 367, 395, 364
 C 411 360, 426, 361, 438, 366
 C 451 371, 461, 377, 470, 386
 C 480 400, 485, 413, 487, 427
 C 489 442, 487, 455, 484, 466
 C 480 482, 474, 494, 465, 506
 C 454 519, 444, 529, 432, 538
 C 414 552, 396, 563, 381, 571
 C 406 564, 434, 550, 457, 533
 C 473 521, 486, 510, 497, 497
 C 510 484, 518, 472, 526, 459
 C 533 448, 539, 438, 544, 429
 C 539 433, 544, 418, 545, 417
 C 545 422, 540, 414, 538, 418
 C 546 398, 550, 380, 554, 362
 C 558 336, 559, 310, 556, 286
 C 552 255, 545, 229, 533, 205
 C 521 177, 504, 153, 483, 132
 C 471 119, 459, 110, 447, 102
 C 433 91, 419, 84, 405, 77
 C 392 72, 381, 68, 370, 64
 C 352 59, 335, 57, 319, 55" fill="rgb(178,129,66)" />
<path  d="
 M 389 380 C 391 378, 395, 380, 397, 379
 C 413 383, 431, 401, 419, 414
 C 414 426, 409, 436, 401, 445
 C 387 462, 371, 472, 355, 481
 C 343 485, 332, 489, 322, 491
 C 310 493, 299, 492, 289, 493
 C 273 491, 261, 486, 249, 481
 C 258 477, 268, 475, 277, 470
 C 283 469, 283, 473, 284, 474
 C 283 473, 282, 471, 281, 469
 C 295 461, 306, 450, 317, 442
 C 336 423, 353, 401, 375, 387
 C 380 384, 384, 382, 387, 380" fill="rgb(107,67,90)" />
<path  d="
 M 297 52 C 300 59, 303, 66, 308, 73
 C 319 87, 330, 96, 340, 108
 C 316 104, 242, 54, 272, 87
 C 290 98, 308, 104, 325, 112
 C 334 118, 341, 122, 347, 130
 C 351 135, 356, 143, 353, 146
 C 326 135, 296, 136, 274, 123
 C 278 130, 287, 132, 293, 136
 C 299 137, 310, 143, 308, 138
 C 315 146, 330, 145, 337, 152
 C 345 158, 347, 164, 350, 169
 C 353 178, 353, 185, 352, 192
 C 359 196, 364, 195, 369, 196
 C 374 193, 381, 197, 383, 193
 C 388 194, 392, 195, 395, 197
 C 397 202, 422, 224, 420, 218
 C 418 225, 430, 234, 424, 235
 C 427 235, 430, 234, 433, 233
 C 436 236, 435, 237, 437, 238
 C 442 235, 444, 230, 446, 226
 C 440 227, 433, 227, 429, 224
 C 416 215, 408, 203, 397, 198
 C 387 190, 374, 191, 365, 184
 C 360 178, 357, 175, 355, 170
 C 363 172, 367, 178, 373, 179
 C 389 182, 402, 183, 414, 188
 C 424 191, 429, 199, 434, 204
 C 441 205, 447, 203, 451, 206
 C 459 208, 461, 213, 459, 219
 C 464 216, 469, 213, 471, 208
 C 477 201, 477, 190, 473, 185
 C 470 181, 468, 179, 467, 178
 C 465 181, 462, 184, 457, 182
 C 445 177, 435, 174, 426, 167
 C 417 160, 424, 153, 420, 146
 C 404 130, 387, 123, 374, 106
 C 367 97, 362, 89, 359, 81
 C 358 85, 359, 89, 360, 93
 C 364 106, 373, 115, 378, 124
 C 358 115, 344, 99, 328, 88
 C 316 76, 305, 66, 299, 54" fill="rgb(228,197,117)" />
<path  d="
 M 95 295 C 90 297, 90, 303, 87, 308
 C 87 305, 76, 329, 78, 348
 C 77 371, 81, 390, 89, 407
 C 89 394, 89, 379, 95, 367
 C 99 390, 105, 408, 115, 426
 C 125 442, 138, 457, 153, 467
 C 161 477, 162, 468, 168, 473
 C 158 465, 153, 455, 149, 445
 C 160 449, 168, 455, 176, 460
 C 189 465, 199, 468, 211, 469
 C 228 470, 242, 470, 254, 465
 C 267 461, 277, 457, 286, 451
 C 276 454, 265, 459, 254, 461
 C 240 464, 227, 464, 214, 463
 C 194 462, 178, 455, 162, 447
 C 145 435, 130, 420, 121, 404
 C 113 395, 111, 382, 108, 374
 C 107 365, 103, 356, 105, 346
 C 104 341, 102, 336, 105, 333
 C 109 348, 117, 362, 120, 369
 C 129 382, 138, 392, 147, 401
 C 162 413, 177, 420, 193, 423
 C 204 423, 212, 424, 219, 422
 C 231 420, 239, 417, 247, 412
 C 257 403, 267, 394, 272, 384
 C 282 365, 280, 362, 286, 355
 C 278 368, 269, 382, 254, 392
 C 243 399, 232, 404, 221, 405
 C 210 406, 201, 405, 194, 402
 C 182 400, 174, 395, 165, 390
 C 155 383, 148, 374, 141, 366
 C 125 349, 121, 328, 114, 310
 C 105 304, 100, 299, 94, 297" fill="rgb(180,131,66)" />
<path  d="
 M 224 105 C 212 106, 201, 107, 191, 110
 C 198 110, 206, 112, 212, 115
 C 220 118, 228, 121, 231, 128
 C 213 129, 197, 130, 183, 132
 C 163 137, 146, 142, 131, 152
 C 138 151, 147, 150, 157, 151
 C 161 151, 165, 154, 166, 156
 C 153 169, 138, 169, 127, 179
 C 115 186, 106, 193, 98, 203
 C 91 210, 87, 216, 83, 221
 C 96 215, 82, 216, 99, 205
 C 102 207, 103, 202, 107, 204
 C 106 209, 102, 208, 101, 211
 C 107 208, 115, 203, 122, 207
 C 113 221, 102, 228, 94, 240
 C 104 231, 109, 231, 111, 222
 C 117 224, 117, 231, 119, 226
 C 116 234, 119, 237, 122, 239
 C 128 224, 136, 208, 148, 194
 C 162 179, 176, 167, 191, 159
 C 202 151, 213, 147, 224, 143
 C 239 139, 251, 136, 264, 135
 C 253 119, 253, 96, 224, 106" fill="rgb(238,207,119)" />
<path  d="
 M 408 309 C 403 309, 401, 312, 398, 311
 C 382 316, 381, 316, 368, 322
 C 356 330, 342, 340, 332, 353
 C 336 352, 309, 377, 310, 393
 C 328 375, 343, 357, 360, 348
 C 374 341, 383, 352, 397, 350
 C 398 345, 405, 345, 408, 345
 C 449 344, 441, 352, 451, 352
 C 460 359, 473, 363, 479, 373
 C 489 383, 494, 396, 498, 399
 C 498 399, 497, 397, 498, 396
 C 493 385, 488, 358, 481, 352
 C 466 335, 458, 327, 439, 321
 C 443 319, 462, 321, 456, 316
 C 446 311, 444, 312, 430, 309
 C 422 309, 416, 309, 410, 309" fill="rgb(118,65,126)" />
<path  d="
 M 115 222 C 101 224, 115, 221, 108, 232
 C 101 230, 100, 240, 92, 241
 C 81 255, 75, 268, 70, 282
 C 70 281, 73, 280, 73, 278
 C 76 284, 82, 279, 83, 286
 C 78 289, 77, 293, 74, 295
 C 71 301, 68, 305, 66, 308
 C 64 306, 67, 302, 66, 300
 L 67 299
 L 66 301 C 64 305, 64, 310, 65, 315
 C 66 308, 70, 303, 73, 297
 C 80 289, 87, 285, 93, 281
 C 92 290, 88, 298, 86, 307
 C 88 302, 89, 296, 94, 295
 C 100 298, 106, 303, 114, 309
 C 121 320, 123, 341, 133, 353
 C 135 357, 135, 359, 137, 359
 C 146 371, 155, 382, 165, 389
 C 155 382, 146, 371, 139, 362
 C 146 369, 144, 360, 150, 365
 C 152 366, 155, 365, 156, 364
 C 153 338, 145, 343, 139, 318
 C 133 300, 132, 279, 135, 260
 C 129 265, 133, 270, 126, 273
 C 124 275, 119, 276, 117, 276
 C 117 255, 123, 239, 129, 223
 C 127 229, 124, 235, 122, 240
 C 115 236, 122, 228, 113, 222" fill="rgb(210,168,88)" />
<path  d="
 M 372 346 C 372 350, 362, 348, 366, 346
 C 350 351, 328, 375, 315, 390
 C 312 394, 305, 388, 309, 384
 C 315 375, 322, 367, 328, 358
 C 313 376, 298, 397, 277, 411
 C 267 420, 256, 423, 246, 428
 C 228 431, 214, 436, 205, 440
 C 205 440, 207, 442, 204, 444
 C 215 437, 210, 450, 241, 441
 C 258 438, 274, 430, 288, 420
 C 298 423, 302, 425, 312, 425
 C 362 390, 337, 393, 393, 354
 C 400 353, 406, 349, 414, 348
 C 461 352, 459, 352, 412, 345
 C 413 346, 409, 346, 408, 346
 C 400 345, 401, 349, 399, 351
 C 384 353, 377, 346, 376, 347" fill="rgb(83,43,92)" />
<path  d="
 M 288 212 C 282 212, 276, 214, 271, 215
 C 251 219, 218, 235, 253, 230
 C 254 229, 251, 226, 252, 224
 C 254 225, 257, 226, 257, 227
 C 262 228, 266, 223, 273, 225
 L 275 227
 L 276 228 C 280 229, 278, 231, 281, 236
 C 277 241, 272, 244, 269, 244
 C 276 244, 275, 252, 281, 256
 C 283 261, 289, 268, 282, 271
 C 292 273, 302, 275, 311, 279
 C 316 280, 318, 278, 317, 275
 C 315 262, 311, 250, 307, 239
 C 301 241, 301, 245, 295, 246
 C 292 243, 291, 242, 290, 241
 C 289 234, 287, 231, 289, 227
 C 286 231, 284, 217, 276, 226
 L 275 227
 L 273 225 C 271 223, 271, 222, 273, 220
 C 282 215, 294, 216, 293, 213
 C 298 218, 309, 212, 315, 221
 C 317 224, 317, 226, 318, 228
 C 313 235, 309, 234, 311, 238
 C 317 252, 318, 267, 323, 279
 C 334 276, 343, 270, 353, 268
 C 356 263, 347, 263, 346, 257
 C 348 259, 345, 262, 342, 259
 C 343 253, 342, 252, 342, 248
 C 349 249, 352, 254, 356, 257
 C 362 257, 358, 254, 361, 250
 C 359 247, 351, 248, 349, 235
 C 348 232, 348, 231, 349, 230
 C 353 227, 360, 231, 361, 228
 C 348 219, 336, 216, 323, 213
 C 313 211, 304, 211, 295, 212
 C 292 211, 291, 211, 290, 212" fill="rgb(128,77,130)" />
<path  d="
 M 403 281 C 383 283, 365, 288, 349, 298
 C 338 304, 330, 310, 323, 317
 C 314 325, 309, 334, 305, 342
 C 309 337, 310, 344, 315, 341
 C 318 343, 316, 346, 316, 348
 C 327 330, 343, 318, 360, 308
 C 378 297, 395, 291, 414, 288
 C 418 288, 421, 287, 423, 288
 C 403 293, 386, 301, 371, 311
 C 358 320, 350, 329, 342, 340
 C 353 330, 366, 321, 380, 314
 C 391 311, 399, 308, 408, 307
 C 424 306, 437, 307, 448, 311
 C 460 313, 467, 319, 475, 324
 C 476 323, 477, 318, 478, 316
 C 510 338, 474, 308, 464, 307
 C 452 303, 443, 300, 433, 299
 C 436 294, 444, 293, 450, 293
 C 461 292, 470, 293, 477, 296
 C 463 289, 450, 284, 436, 282
 C 424 280, 414, 280, 404, 281" fill="rgb(235,202,124)" />
<path  d="
 M 312 45 C 314 47, 316, 50, 317, 52
 C 335 55, 351, 58, 366, 62
 C 382 66, 396, 71, 408, 78
 C 436 90, 459, 106, 481, 127
 C 499 146, 515, 165, 525, 186
 C 539 208, 547, 237, 554, 257
 C 552 259, 558, 269, 556, 275
 C 556 281, 563, 278, 564, 287
 C 568 286, 564, 268, 562, 259
 C 558 238, 552, 220, 544, 203
 C 531 173, 513, 148, 491, 125
 C 475 108, 458, 96, 441, 85
 C 428 77, 416, 71, 405, 65
 C 385 57, 367, 52, 348, 48
 C 335 46, 325, 46, 314, 45" fill="rgb(239,208,122)" />
<path  d="
 M 199 187 C 182 217, 178, 257, 164, 289
 C 164 305, 164, 316, 167, 327
 C 169 340, 175, 350, 178, 359
 C 166 348, 158, 338, 152, 325
 C 145 308, 144, 290, 145, 270
 C 147 251, 153, 236, 162, 221
 C 169 212, 175, 205, 182, 198
 C 187 195, 190, 188, 195, 190" fill="rgb(96,53,110)" />
<path  d="
 M 256 138 C 240 141, 224, 144, 210, 151
 C 196 157, 185, 163, 174, 171
 C 157 186, 143, 202, 134, 218
 C 124 237, 118, 256, 117, 276
 C 121 274, 124, 274, 125, 273
 L 128 274
 L 125 273 C 131 270, 128, 266, 134, 261
 C 135 272, 134, 282, 135, 293
 C 134 281, 135, 268, 136, 258
 C 137 250, 141, 245, 143, 234
 C 152 216, 165, 196, 184, 183
 C 198 171, 211, 164, 225, 158
 C 237 145, 300, 158, 267, 137
 C 263 137, 260, 137, 258, 138" fill="rgb(183,133,63)" />
<path  d="
 M 258 228 C 255 230, 252, 232, 249, 233
 C 242 235, 243, 230, 239, 230
 C 232 233, 227, 237, 222, 240
 C 207 254, 203, 270, 193, 283
 C 192 290, 192, 291, 191, 296
 C 190 299, 190, 300, 191, 302
 C 190 300, 190, 299, 191, 298
 C 193 295, 194, 296, 193, 297
 C 194 308, 197, 315, 197, 324
 C 208 330, 220, 335, 225, 346
 C 226 340, 227, 345, 226, 334
 C 223 333, 221, 333, 220, 330
 C 218 327, 220, 327, 219, 325
 C 218 327, 215, 323, 211, 327
 C 206 321, 206, 315, 208, 311
 C 210 306, 211, 305, 214, 304
 C 220 302, 226, 300, 232, 302
 C 236 290, 244, 280, 245, 271
 C 242 244, 245, 259, 242, 240
 C 243 237, 259, 234, 246, 235
 C 251 233, 253, 231, 256, 230" fill="rgb(208,165,90)" />
<path  d="
 M 136 471 C 139 478, 144, 485, 148, 492
 C 158 503, 165, 510, 176, 516
 C 191 524, 206, 526, 222, 527
 C 234 536, 246, 543, 257, 548
 C 268 551, 276, 554, 285, 556
 C 271 553, 254, 549, 246, 539
 C 241 533, 233, 529, 234, 521
 C 245 527, 255, 535, 266, 538
 C 252 533, 240, 523, 228, 514
 C 217 502, 207, 491, 200, 479
 C 194 478, 190, 477, 187, 476
 C 189 483, 195, 491, 196, 498
 C 174 491, 155, 483, 138, 471" fill="rgb(77,41,91)" />
<path  d="
 M 217 58 C 196 64, 177, 73, 158, 84
 C 140 96, 124, 109, 109, 124
 C 88 145, 72, 167, 61, 191
 C 50 212, 43, 231, 38, 252
 C 41 251, 38, 248, 40, 246
 C 38 256, 50, 243, 46, 254
 C 51 230, 61, 209, 71, 188
 C 81 171, 92, 156, 104, 142
 C 122 123, 139, 108, 158, 96
 C 178 82, 198, 72, 219, 66
 C 220 63, 218, 61, 217, 59" fill="rgb(238,207,122)" />
<path  d="
 M 263 162 C 267 159, 274, 162, 273, 168
 C 269 170, 267, 169, 265, 169
 C 268 167, 267, 172, 269, 173
 C 277 178, 279, 180, 284, 181
 C 263 188, 242, 193, 224, 207
 C 207 221, 197, 237, 190, 255
 C 188 243, 190, 234, 193, 225
 C 197 211, 203, 201, 211, 191
 C 218 183, 226, 178, 232, 174
 C 248 165, 264, 162, 265, 165" fill="rgb(89,49,102)" />
<path  d="
 M 274 127 C 291 150, 323, 152, 335, 169
 C 333 175, 324, 174, 317, 175
 C 304 172, 294, 169, 285, 164
 C 291 171, 299, 175, 307, 179
 C 320 182, 330, 185, 341, 185
 C 342 188, 341, 190, 338, 191
 C 328 196, 328, 197, 319, 197
 C 345 211, 358, 196, 400, 214
 C 404 218, 409, 224, 413, 228
 C 417 236, 410, 242, 411, 244
 C 419 245, 429, 245, 436, 240
 C 434 233, 430, 237, 423, 238
 C 423 233, 423, 228, 420, 225
 C 413 217, 407, 210, 399, 207
 C 385 197, 368, 199, 353, 196
 C 350 187, 352, 179, 348, 171
 C 346 165, 343, 160, 340, 155
 C 319 143, 296, 143, 278, 129" fill="rgb(177,129,66)" />
<path  d="
 M 148 339 C 155 350, 156, 359, 158, 363
 C 155 370, 144, 361, 146, 366
 C 136 358, 163, 391, 173, 391
 C 188 400, 203, 404, 218, 404
 C 234 402, 246, 397, 257, 389
 C 271 377, 278, 364, 285, 351
 C 278 359, 270, 369, 260, 374
 C 250 381, 240, 384, 230, 386
 C 221 386, 214, 387, 209, 385
 C 197 384, 189, 379, 181, 375
 C 167 365, 157, 354, 149, 342" fill="rgb(235,202,116)" />
<path  d="
 M 365 417 C 355 421, 344, 424, 334, 428
 C 329 430, 326, 436, 321, 437
 C 318 443, 314, 444, 312, 448
 C 303 455, 293, 462, 285, 467
 C 289 466, 285, 473, 291, 475
 C 294 479, 296, 481, 298, 483
 C 296 481, 294, 479, 292, 477
 C 295 476, 296, 478, 298, 479
 C 299 478, 299, 477, 299, 476
 C 301 479, 301, 481, 301, 483
 C 303 471, 304, 458, 309, 448
 C 305 465, 307, 492, 304, 482
 C 308 487, 310, 487, 312, 487
 C 329 477, 342, 466, 351, 450
 C 342 446, 332, 443, 322, 439
 C 332 437, 342, 444, 354, 444
 C 360 436, 362, 427, 365, 418" fill="rgb(81,43,86)" />
<path  d="
 M 354 272 C 345 274, 337, 278, 328, 281
 C 324 287, 327, 290, 331, 292
 C 328 295, 327, 292, 325, 292
 C 324 294, 324, 296, 324, 298
 C 319 296, 323, 287, 315, 287
 C 296 296, 280, 307, 264, 318
 C 261 321, 259, 322, 260, 325
 C 268 329, 276, 331, 283, 334
 C 276 337, 266, 327, 260, 331
 C 262 336, 266, 342, 269, 348
 C 275 345, 279, 337, 285, 336
 C 288 331, 290, 327, 294, 325
 C 298 327, 293, 330, 294, 333
 C 298 327, 302, 320, 307, 314
 C 313 309, 317, 304, 322, 300
 C 325 296, 328, 295, 329, 294
 C 346 288, 350, 276, 356, 271" fill="rgb(125,75,130)" />
<path  d="
 M 271 273 C 261 275, 253, 284, 250, 284
 C 247 288, 246, 292, 245, 299
 C 250 309, 252, 323, 258, 317
 L 257 320
 L 257 319 C 289 297, 346, 276, 266, 273" fill="rgb(124,73,130)" />
<path  d="
 M 363 227 C 361 230, 365, 230, 365, 232
 C 359 231, 355, 231, 351, 230
 C 350 235, 354, 239, 354, 243
 C 358 245, 362, 246, 365, 248
 C 365 244, 359, 243, 357, 237
 C 361 232, 364, 236, 367, 233
 C 372 236, 368, 236, 370, 238
 C 368 240, 366, 239, 365, 240
 C 374 238, 370, 247, 374, 250
 C 370 255, 365, 256, 363, 251
 C 366 258, 351, 263, 357, 268
 C 352 269, 351, 271, 349, 271
 C 339 274, 332, 278, 325, 281
 C 317 268, 315, 253, 309, 239
 C 312 253, 319, 265, 319, 280
 C 305 277, 293, 275, 280, 272
 C 273 271, 269, 270, 265, 267
 C 263 260, 272, 264, 275, 261
 C 282 263, 274, 268, 284, 268
 C 281 254, 272, 248, 266, 246
 C 257 245, 259, 256, 250, 260
 C 246 256, 246, 253, 239, 249
 C 246 255, 247, 262, 247, 270
 C 244 277, 241, 287, 236, 294
 C 236 296, 234, 296, 234, 297
 C 231 303, 232, 306, 233, 311
 C 234 307, 232, 302, 234, 299
 C 245 292, 248, 280, 259, 275
 C 266 272, 272, 271, 279, 272
 C 293 274, 304, 279, 315, 282
 L 317 284 L 317 285
 L 314 285 C 295 295, 276, 306, 258, 320
 C 248 317, 246, 306, 243, 298
 C 243 308, 255, 317, 251, 326
 C 253 326, 255, 327, 257, 329
 C 261 336, 264, 342, 267, 348
 C 262 347, 251, 343, 244, 343
 C 250 346, 258, 345, 264, 350
 C 262 356, 259, 358, 257, 361
 C 261 356, 265, 355, 267, 351
 L 269 350
 L 268 347 C 265 342, 261, 336, 258, 330
 L 257 329 L 257 328
 L 258 327 C 267 329, 275, 332, 283, 335
 C 275 332, 267, 329, 258, 326
 C 260 319, 265, 317, 268, 314
 C 285 302, 299, 293, 314, 286
 C 323 286, 322, 293, 323, 298
 C 323 295, 322, 293, 323, 289
 C 326 290, 328, 291, 329, 293
 C 328 290, 321, 287, 324, 283
 C 332 278, 339, 275, 346, 272
 C 352 271, 357, 268, 359, 271
 C 360 276, 355, 278, 352, 276
 C 351 278, 351, 279, 352, 281
 C 361 278, 368, 273, 375, 271
 L 375 270 L 374 269 L 374 269
 L 376 267 C 380 271, 385, 270, 390, 268
 C 391 267, 380, 269, 378, 263
 C 379 257, 374, 257, 376, 253
 C 372 247, 374, 245, 372, 241
 C 387 241, 370, 234, 365, 228" fill="rgb(228,191,140)" />
<path  d="
 M 204 259 C 200 267, 194, 274, 191, 282
 C 185 298, 181, 312, 180, 327
 C 177 330, 178, 326, 177, 325
 C 176 318, 176, 313, 178, 309
 C 176 313, 177, 318, 176, 322
 C 179 333, 181, 342, 185, 350
 C 193 360, 199, 371, 211, 372
 C 215 364, 221, 356, 226, 348
 C 219 334, 205, 333, 195, 325
 C 196 315, 192, 309, 193, 301
 C 191 305, 192, 308, 193, 311
 C 190 316, 188, 312, 189, 311
 C 187 300, 191, 293, 191, 285
 C 194 275, 200, 269, 204, 261" fill="rgb(91,50,96)" />
<path  d="
 M 159 243 C 151 246, 150, 254, 148, 263
 C 146 277, 146, 291, 148, 303
 C 150 316, 154, 326, 159, 336
 C 164 344, 170, 349, 175, 355
 C 172 347, 168, 341, 166, 333
 C 163 319, 162, 306, 163, 292
 C 164 275, 170, 262, 176, 249
 C 166 248, 171, 242, 160, 243" fill="rgb(114,65,128)" />
<path  d="
 M 224 17 C 223 29, 226, 40, 229, 50
 C 235 64, 243, 74, 252, 84
 C 275 104, 300, 111, 322, 126
 C 326 130, 334, 134, 333, 139
 C 339 139, 345, 142, 351, 144
 C 351 136, 346, 129, 339, 124
 C 313 105, 283, 100, 259, 79
 C 249 70, 241, 62, 236, 52
 C 230 42, 219, 24, 226, 18" fill="rgb(177,131,65)" />
<path  d="
 M 479 318 C 474 332, 477, 320, 474, 335
 C 479 345, 488, 350, 491, 361
 C 487 359, 487, 357, 486, 355
 C 486 357, 488, 359, 488, 361
 C 492 368, 495, 373, 497, 379
 C 501 391, 501, 402, 503, 412
 C 499 401, 509, 404, 508, 397
 C 510 402, 512, 407, 511, 413
 C 512 403, 511, 394, 509, 385
 C 506 373, 502, 363, 497, 355
 C 507 354, 515, 366, 521, 371
 C 516 355, 511, 343, 502, 336
 C 490 323, 491, 323, 479, 318" fill="rgb(211,169,99)" />
<path  d="
 M 410 291 C 398 293, 387, 296, 377, 301
 C 363 307, 352, 314, 341, 322
 C 314 346, 304, 375, 282, 399
 C 274 411, 265, 416, 256, 422
 C 267 418, 279, 411, 289, 401
 C 321 369, 327, 351, 356, 321
 C 374 306, 392, 296, 411, 290" fill="rgb(179,130,63)" />
<path  d="
 M 551 253 C 553 261, 555, 270, 556, 279
 C 559 297, 558, 315, 559, 332
 C 556 364, 549, 390, 540, 416
 C 540 414, 542, 417, 544, 419
 C 545 424, 541, 428, 541, 432
 C 547 420, 551, 408, 556, 396
 C 562 373, 567, 351, 568, 329
 C 569 311, 568, 295, 566, 281
 C 567 290, 563, 278, 565, 288
 C 563 282, 561, 280, 558, 280
 C 554 281, 555, 250, 553, 256" fill="rgb(208,166,90)" />
<path  d="
 M 412 373 C 420 374, 433, 391, 426, 380
 C 437 388, 440, 395, 444, 401
 C 449 423, 451, 427, 450, 454
 C 457 451, 461, 447, 468, 448
 C 469 442, 468, 434, 469, 427
 C 468 416, 463, 409, 460, 402
 C 456 393, 450, 387, 443, 383
 C 433 377, 424, 374, 415, 372" fill="rgb(116,65,125)" />
<path  d="
 M 59 218 C 55 223, 54, 236, 49, 237
 C 53 237, 48, 247, 47, 252
 C 43 254, 46, 250, 47, 248
 C 38 256, 43, 241, 38, 256
 C 33 273, 34, 280, 31, 294
 C 30 316, 31, 335, 34, 353
 C 37 370, 39, 384, 45, 397
 C 51 373, 35, 331, 42, 294
 C 42 278, 45, 267, 47, 254
 C 50 241, 54, 230, 58, 220" fill="rgb(208,166,90)" />
<path  d="
 M 437 437 C 433 446, 428, 455, 420, 463
 C 404 480, 388, 488, 378, 494
 C 378 499, 382, 497, 384, 498
 C 387 501, 387, 503, 390, 508
 C 383 507, 385, 511, 380, 513
 C 384 517, 374, 515, 377, 515
 C 379 516, 380, 515, 382, 516
 C 376 520, 371, 524, 366, 525
 C 374 522, 382, 518, 390, 514
 C 400 508, 407, 501, 414, 493
 C 423 484, 429, 476, 433, 467
 C 428 458, 434, 446, 436, 439" fill="rgb(210,170,92)" />
<path  d="
 M 448 420 C 449 432, 449, 443, 446, 452
 C 443 468, 439, 481, 432, 492
 C 433 490, 435, 492, 436, 496
 C 429 498, 433, 505, 429, 510
 C 430 514, 430, 514, 432, 515
 C 438 514, 457, 490, 462, 471
 C 466 463, 467, 457, 469, 451
 C 469 418, 470, 418, 469, 452
 C 463 446, 457, 453, 452, 454
 C 450 442, 450, 432, 448, 423" fill="rgb(83,43,90)" />
<path  d="
 M 231 497 C 241 506, 253, 513, 266, 518
 C 282 526, 297, 531, 314, 532
 C 331 533, 345, 531, 357, 527
 C 366 523, 373, 521, 380, 518
 C 379 515, 378, 520, 377, 518
 C 379 510, 381, 513, 383, 509
 C 391 508, 380, 513, 390, 509
 C 390 505, 383, 504, 388, 501
 C 376 509, 364, 515, 352, 517
 C 336 522, 320, 523, 305, 524
 C 292 522, 283, 520, 273, 518
 C 258 513, 245, 505, 233, 499" fill="rgb(237,205,123)" />
<path  d="
 M 264 162 C 266 162, 269, 166, 264, 167
 C 264 165, 260, 165, 262, 163
 C 252 165, 231, 172, 221, 183
 C 211 193, 204, 202, 199, 212
 C 202 207, 203, 202, 208, 199
 C 219 188, 309, 184, 269, 177
 C 274 169, 265, 175, 266, 169
 C 268 168, 269, 169, 272, 168
 C 272 166, 272, 164, 271, 162
 L 268 161 L 267 161 L 267 162" fill="rgb(79,42,92)" />
<path  d="
 M 196 189 C 187 193, 181, 200, 174, 208
 C 165 217, 161, 225, 156, 233
 C 154 239, 153, 242, 151, 245
 C 149 254, 147, 261, 146, 268
 C 146 283, 144, 296, 148, 307
 C 144 296, 146, 284, 145, 272
 C 146 261, 150, 255, 151, 247
 C 157 240, 165, 244, 168, 243
 C 166 251, 175, 242, 176, 248
 C 173 257, 170, 265, 168, 273
 C 184 247, 178, 213, 199, 190" fill="rgb(83,44,95)" />
<path  d="
 M 394 385 M 393 386
 L 391 387 C 392 390, 394, 394, 391, 397
 C 387 405, 388, 397, 385, 404
 C 387 414, 383, 426, 384, 436
 C 389 437, 392, 434, 396, 431
 C 404 422, 404, 411, 411, 404
 L 413 403
 L 411 405 C 407 402, 414, 396, 411, 392
 C 406 387, 401, 384, 395, 385" fill="rgb(186,138,72)" />
<path  d="
 M 421 400 C 411 409, 414, 414, 408, 428
 C 398 438, 387, 444, 376, 447
 C 369 456, 393, 440, 398, 440
 C 384 456, 371, 469, 355, 475
 C 341 480, 330, 486, 317, 488
 C 326 481, 336, 475, 343, 465
 C 348 460, 356, 450, 354, 448
 C 350 452, 346, 461, 341, 465
 C 333 475, 324, 481, 315, 485
 L 315 488
 L 312 488 C 310 488, 307, 488, 305, 489
 C 304 474, 308, 463, 310, 451
 C 305 460, 303, 472, 302, 484
 C 294 481, 287, 473, 284, 467
 C 287 476, 294, 482, 299, 487
 C 281 487, 266, 483, 251, 479
 C 265 486, 281, 491, 298, 491
 C 319 490, 336, 487, 352, 479
 C 370 471, 385, 461, 396, 447
 C 403 440, 407, 434, 410, 428
 C 415 418, 423, 410, 421, 401" fill="rgb(123,81,122)" />
<path  d="
 M 398 439 C 391 445, 382, 448, 373, 452
 C 369 461, 364, 467, 357, 472
 C 356 469, 367, 461, 368, 453
 C 366 450, 361, 450, 357, 449
 C 350 459, 343, 468, 334, 475
 C 328 481, 323, 483, 317, 486
 C 331 485, 343, 479, 356, 475
 C 359 472, 362, 473, 363, 470
 C 377 462, 387, 452, 397, 441" fill="rgb(79,40,81)" />
<path  d="
 M 235 521 C 234 528, 242, 533, 243, 537
 C 251 545, 263, 549, 272, 552
 C 287 556, 300, 556, 313, 558
 C 325 558, 333, 553, 341, 551
 C 323 554, 303, 552, 286, 546
 C 267 541, 251, 534, 237, 522" fill="rgb(110,64,127)" />
<path  d="
 M 265 185 C 244 184, 226, 203, 209, 198
 C 203 206, 199, 212, 196, 219
 C 192 231, 190, 241, 189, 251
 C 196 237, 204, 223, 218, 211
 C 228 202, 237, 197, 246, 192
 C 252 188, 282, 183, 267, 185" fill="rgb(114,67,126)" />
<path  d="
 M 416 392 C 418 401, 405, 409, 409, 412
 C 406 415, 399, 432, 390, 436
 C 386 438, 384, 437, 383, 438
 C 385 427, 382, 416, 385, 408
 C 380 409, 376, 411, 372, 413
 C 374 425, 375, 435, 375, 446
 C 387 443, 397, 438, 404, 430
 C 412 419, 420, 411, 418, 398
 C 422 402, 424, 406, 420, 410
 C 425 405, 421, 399, 419, 395" fill="rgb(94,52,78)" />
<path  d="
 M 352 314 C 342 321, 335, 326, 327, 335
 C 323 341, 319, 344, 317, 349
 C 315 347, 315, 345, 316, 343
 C 309 344, 308, 337, 304, 344
 C 294 365, 295, 375, 279, 395
 C 272 406, 259, 420, 246, 426
 C 258 420, 270, 413, 281, 402
 C 300 380, 309, 356, 326, 336
 C 334 327, 342, 320, 349, 315" fill="rgb(214,172,99)" />
<path  d="
 M 240 300 C 237 304, 238, 307, 237, 311
 C 236 310, 235, 308, 236, 307
 C 235 308, 236, 310, 235, 312
 C 229 306, 233, 315, 224, 303
 C 216 307, 216, 314, 213, 315
 C 212 316, 211, 318, 212, 319
 C 215 318, 220, 314, 224, 319
 C 218 330, 235, 329, 231, 340
 C 238 341, 236, 337, 248, 328
 C 241 326, 235, 320, 228, 318
 C 234 315, 238, 321, 244, 322
 C 248 322, 248, 320, 246, 315
 C 248 317, 250, 317, 249, 318
 C 250 317, 248, 317, 248, 315
 C 245 309, 243, 304, 241, 300" fill="rgb(113,66,111)" />
<path  d="
 M 298 216 C 280 219, 262, 221, 290, 221
 C 294 230, 286, 237, 295, 244
 C 301 237, 308, 234, 316, 230
 C 315 225, 313, 222, 311, 218
 C 305 217, 300, 219, 297, 217" fill="rgb(229,192,125)" />
<path  d="
 M 246 342 C 245 344, 243, 341, 242, 343
 C 239 350, 236, 344, 235, 350
 C 241 357, 231, 363, 231, 370
 C 237 373, 246, 367, 252, 364
 C 280 347, 241, 347, 243, 343" fill="rgb(211,171,99)" />
<path  d="
 M 290 35 C 291 43, 289, 53, 293, 60
 C 296 72, 302, 81, 308, 89
 C 308 93, 305, 93, 304, 92
 C 315 94, 325, 99, 335, 104
 C 323 92, 310, 79, 302, 65
 C 294 57, 293, 38, 291, 37" fill="rgb(176,131,66)" />
<path  d="
 M 366 137 C 375 141, 387, 146, 397, 150
 C 404 158, 410, 162, 416, 166
 C 407 167, 398, 166, 390, 164
 C 382 154, 376, 146, 366, 141" fill="rgb(116,88,70)" />
<path  d="
 M 372 236 C 374 247, 377, 256, 379, 265
 C 391 270, 391, 259, 404, 269
 C 403 259, 395, 257, 394, 252
 C 387 245, 381, 239, 374, 239" fill="rgb(216,176,104)" />
<path  d="
 M 224 20 C 226 36, 234, 50, 244, 63
 C 253 73, 262, 80, 271, 86
 C 280 92, 288, 97, 297, 100
 C 287 95, 276, 91, 267, 84
 C 264 65, 228, 47, 226, 21" fill="rgb(208,170,97)" />
<path  d="
 M 264 109 C 265 113, 266, 115, 268, 118
 C 281 124, 299, 133, 317, 133
 C 301 124, 285, 115, 265, 109" fill="rgb(176,130,74)" />
<path  d="
 M 283 469 C 274 473, 263, 477, 253, 479
 C 266 481, 320, 500, 280, 469" fill="rgb(76,40,86)" />
<path  d="
 M 373 389 C 368 394, 361, 398, 356, 403
 C 348 411, 343, 417, 336, 422
 C 345 421, 353, 416, 361, 413
 C 362 409, 356, 408, 354, 405
 C 360 402, 363, 407, 366, 409
 C 369 402, 371, 397, 373, 392" fill="rgb(97,57,94)" />
<path  d="
 M 371 142 C 379 144, 381, 153, 389, 160
 C 395 165, 405, 162, 411, 167
 C 401 153, 387, 148, 373, 143" fill="rgb(57,29,38)" />
<path  d="
 M 231 349 C 225 357, 221, 365, 215, 373
 C 220 371, 225, 375, 230, 372
 C 226 364, 238, 359, 233, 350" fill="rgb(97,54,91)" />
<path  d="
 M 385 383 C 382 384, 379, 386, 376, 387
 C 379 392, 374, 401, 372, 407
 C 377 407, 381, 404, 386, 402
 C 389 395, 386, 389, 384, 385" fill="rgb(99,55,91)" />
<path  d="
 M 442 320 C 451 324, 460, 328, 469, 335
 C 478 344, 484, 351, 489, 359
 C 486 350, 478, 344, 473, 336
 C 473 333, 473, 330, 476, 329
 C 466 322, 455, 321, 443, 321" fill="rgb(228,190,139)" />
<path  d="
 M 74 280 C 67 280, 66, 296, 66, 308
 C 69 312, 71, 299, 82, 289
 C 79 292, 77, 294, 74, 296
 C 76 292, 77, 289, 81, 287
 C 81 280, 78, 285, 76, 280" fill="rgb(185,140,80)" />
<path  d="
 M 207 252 C 198 262, 191, 274, 185, 286
 C 180 300, 175, 314, 179, 328
 C 179 312, 184, 298, 188, 283
 C 193 271, 204, 261, 207, 254" fill="rgb(115,72,117)" />
<path  d="
 M 347 167 C 352 175, 352, 184, 351, 193
 C 368 198, 385, 196, 398, 204
 C 407 209, 414, 217, 419, 224
 C 423 228, 425, 232, 423, 235
 C 426 237, 429, 236, 432, 234
 C 434 237, 436, 238, 435, 240
 C 436 237, 434, 237, 434, 235
 C 430 236, 426, 236, 424, 236
 C 427 235, 422, 229, 422, 226
 L 421 224 L 421 222 L 423 223
 L 422 220 C 410 217, 411, 210, 399, 205
 C 400 200, 402, 204, 403, 205
 C 403 203, 398, 200, 398, 198
 L 400 198 L 402 200 L 401 199
 L 398 199 C 385 188, 371, 202, 354, 195
 C 351 185, 353, 176, 348, 169" fill="rgb(216,174,95)" />
<path  d="
 M 222 304 C 212 302, 205, 313, 210, 322
 C 215 327, 215, 316, 219, 318
 C 227 322, 221, 325, 220, 328
 C 223 331, 225, 330, 227, 331
 C 229 335, 225, 341, 230, 343
 C 235 338, 240, 333, 244, 330
 L 247 329
 L 246 328 C 245 328, 244, 326, 242, 327
 L 242 326 L 244 326 L 245 328
 L 245 330 C 240 331, 237, 337, 233, 340
 C 230 335, 229, 329, 223, 329
 C 222 325, 224, 323, 223, 320
 L 223 319 L 222 318
 L 220 318 C 215 316, 213, 322, 211, 319
 C 213 314, 215, 309, 222, 305
 C 228 303, 231, 306, 229, 311
 C 230 309, 229, 308, 230, 305
 C 227 304, 225, 303, 224, 304" fill="rgb(105,60,85)" />
<path  d="
 M 267 227 C 262 227, 265, 233, 259, 234
 C 254 231, 259, 229, 260, 228
 C 242 236, 259, 234, 241, 242
 C 250 237, 259, 240, 263, 231
 C 268 230, 270, 230, 271, 233
 C 272 236, 269, 238, 268, 237
 C 269 240, 271, 240, 272, 241
 C 283 237, 277, 231, 273, 227
 L 270 226 L 269 226 L 269 227" fill="rgb(225,186,139)" />
<path  d="
 M 369 421 C 366 429, 363, 436, 359, 443
 C 361 446, 363, 447, 367, 446
 C 372 441, 370, 430, 369, 423" fill="rgb(89,49,80)" />
<path  d="
 M 250 329 C 245 334, 241, 337, 237, 343
 C 238 341, 239, 340, 241, 339
 C 251 338, 272, 354, 255, 330
 C 255 332, 251, 331, 249, 332" fill="rgb(120,73,111)" />
<path  d="
 M 263 233 C 263 235, 260, 236, 260, 237
 C 253 244, 253, 237, 246, 243
 C 240 247, 250, 250, 248, 252
 C 258 256, 254, 243, 264, 241
 C 263 239, 262, 240, 261, 240
 L 260 237 L 260 236 L 262 236" fill="rgb(120,72,106)" />
<path  d="
 M 281 162 C 287 165, 293, 167, 300, 169
 C 306 171, 310, 172, 314, 173
 C 318 174, 320, 173, 322, 174
 C 328 174, 332, 173, 336, 172
 C 334 168, 330, 165, 327, 163
 C 326 164, 333, 166, 335, 170
 C 331 171, 328, 174, 323, 173
 C 325 173, 326, 166, 329, 170
 L 330 168 L 329 169 L 329 168
 L 326 168 C 322 169, 306, 166, 301, 169
 C 292 169, 287, 164, 284, 161" fill="rgb(216,176,100)" />
<path  d="
 M 454 188 C 457 187, 461, 190, 463, 192
 C 467 196, 465, 200, 464, 201
 C 461 199, 457, 196, 453, 194
 L 453 192 L 453 191" fill="rgb(144,115,72)" />
<path  d="
 M 388 383 M 387 384
 L 387 384 C 391 400, 384, 409, 386, 428
 C 383 413, 391, 400, 391, 387
 C 397 382, 404, 384, 408, 387
 C 416 392, 409, 403, 411, 403
 C 415 398, 412, 395, 414, 392
 C 412 389, 411, 388, 410, 387
 C 403 382, 397, 382, 389, 383" fill="rgb(193,148,100)" />
<path  d="
 M 286 166 C 313 167, 335, 167, 328, 173
 C 331 168, 329, 164, 325, 164
 C 312 168, 300, 166, 289, 164" fill="rgb(226,188,119)" />
<path  d="
 M 415 403 C 423 403, 414, 417, 411, 420
 C 411 414, 412, 410, 413, 405" fill="rgb(129,87,105)" />
<path  d="
 M 358 93 C 360 101, 361, 110, 368, 116
 C 370 119, 372, 121, 375, 122
 C 368 113, 362, 104, 358, 95" fill="rgb(170,132,68)" />
<path  d="
 M 364 396 C 369 393, 370, 403, 366, 404
 C 363 404, 361, 403, 359, 402
 C 359 399, 361, 399, 363, 398" fill="rgb(100,61,107)" />
<path  d="
 M 387 401 C 388 406, 388, 421, 386, 428
 C 385 421, 387, 410, 384, 403" fill="rgb(184,137,94)" />
<path  d="
 M 104 205 C 99 203, 95, 211, 91, 211
 C 94 212, 84, 214, 89, 218
 C 95 212, 102, 211, 106, 204" fill="rgb(213,177,108)" />
<path  d="
 M 389 488 C 380 492, 370, 495, 361, 497
 C 369 498, 376, 499, 385, 498
 C 381 499, 378, 499, 376, 496
 C 379 491, 385, 491, 388, 487" fill="rgb(221,188,136)" />
<path  d="
 M 314 329 C 316 325, 319, 330, 319, 328
 C 321 331, 322, 333, 323, 334
 C 320 331, 313, 337, 313, 330" fill="rgb(224,188,102)" />
<path  d="
 M 362 461 C 366 461, 358, 469, 356, 470
 C 351 472, 354, 469, 352, 470
 C 353 463, 356, 470, 360, 462" fill="rgb(70,36,72)" />
<path  d="
 M 267 115 C 270 122, 274, 128, 279, 129
 L 282 131 L 283 132
 L 284 133 C 298 140, 313, 143, 328, 148
 C 310 139, 301, 142, 281, 130
 C 272 119, 286, 127, 267, 116" fill="rgb(210,168,95)" />
<path  d="
 M 376 389 C 374 395, 372, 401, 369, 407
 C 366 413, 363, 408, 362, 407
 C 363 408, 363, 410, 364, 410
 L 365 412 L 364 413 L 364 415
 L 361 415 C 353 419, 344, 422, 336, 425
 C 344 422, 353, 420, 362, 416
 L 364 415 L 365 415
 L 366 415 L 366 416 L 367 418
 L 367 420 C 367 422, 365, 424, 364, 426
 C 366 424, 366, 422, 367, 420
 C 371 419, 371, 424, 372, 426
 C 369 421, 373, 410, 366, 417
 L 366 414 L 366 413
 L 367 411 C 367 410, 369, 411, 368, 409
 L 371 410
 L 372 412 C 375 410, 378, 408, 381, 406
 C 378 407, 375, 410, 371, 411
 C 370 404, 374, 397, 375, 390" fill="rgb(185,143,145)" />
<path  d="
 M 327 235 C 336 237, 325, 244, 321, 239
 C 321 235, 323, 235, 326, 236" fill="rgb(190,146,164)" />
<path  d="
 M 343 250 C 345 253, 354, 256, 350, 260
 C 353 259, 355, 262, 355, 259
 C 352 256, 349, 251, 346, 249" fill="rgb(233,196,181)" />
<path  d="
 M 365 396 C 364 399, 361, 399, 359, 400
 C 361 403, 363, 403, 365, 404
 C 367 402, 368, 400, 367, 397" fill="rgb(103,63,112)" />
<path  d="
 M 362 318 C 348 328, 338, 342, 327, 354
 C 351 335, 337, 339, 361, 318" fill="rgb(203,154,113)" /></svg>