<svg xmlns="http://www.w3.org/2000/svg" viewBox="0 0 512 512">
    <g transform="matrix(1.07648,0,0,1.07648,-32.6876,-24.7446)">
        <circle cx="268.177" cy="260.799" r="237.812" fill="#f56733"/>
    </g>
    <g transform="matrix(0.850331,0,0,0.849918,38.3155,29.5376)">
        <g transform="matrix(0.465394,0,0,0.456748,61.31,91.1071)">
            <path d="M125.893,67.254C125.893,38.239 102.786,14.683 74.324,14.683C45.862,14.683 22.755,38.239 22.755,67.254L22.755,446.564C22.755,475.579 45.862,499.135 74.324,499.135C102.786,499.135 125.893,475.579 125.893,446.564L125.893,67.254Z" fill="white"/>
        </g>
        <g transform="matrix(0.465394,1.03177e-05,-8.06779e-06,0.363909,381.51,138.367)">
            <path d="M125.893,80.666C125.893,44.249 102.786,14.683 74.324,14.683C45.862,14.683 22.755,44.249 22.755,80.666L22.755,433.152C22.755,469.569 45.862,499.135 74.324,499.135C102.786,499.135 125.893,469.569 125.893,433.152L125.893,80.666Z" fill="white"/>
        </g>
        <g transform="matrix(1.83083,0,0,1.83083,-204.135,-559.322)">
            <path d="M150.825,466.966C150.825,522.471 195.82,567.466 251.325,567.466C306.83,567.466 351.826,522.471 351.826,466.966L325.696,466.966C325.696,508.039 292.399,541.336 251.325,541.336C210.252,541.336 176.955,508.039 176.955,466.966L150.825,466.966Z" fill="white"/>
        </g>
        <g transform="matrix(0.465394,0,0,0.33027,148.41,187.151)">
            <path d="M125.893,87.386C125.893,47.26 102.786,14.683 74.324,14.683C45.862,14.683 22.755,47.26 22.755,87.386L22.755,426.432C22.755,466.558 45.862,499.135 74.324,499.135C102.786,499.135 125.893,466.558 125.893,426.432L125.893,87.386Z" fill="white"/>
        </g>
        <g transform="matrix(0.465394,0,0,0.33027,221.41,187.151)">
            <path d="M125.893,87.386C125.893,47.26 102.786,14.683 74.324,14.683C45.862,14.683 22.755,47.26 22.755,87.386L22.755,426.432C22.755,466.558 45.862,499.135 74.324,499.135C102.786,499.135 125.893,466.558 125.893,426.432L125.893,87.386Z" fill="white"/>
        </g>
        <g transform="matrix(0.465394,0,0,0.33027,294.41,187.151)">
            <path d="M125.893,87.386C125.893,47.26 102.786,14.683 74.324,14.683C45.862,14.683 22.755,47.26 22.755,87.386L22.755,426.432C22.755,466.558 45.862,499.135 74.324,499.135C102.786,499.135 125.893,466.558 125.893,426.432L125.893,87.386Z" fill="white"/>
        </g>
    </g>
</svg>